<svg width="24" height="24" viewBox="0 0 24 24" fill="none" xmlns="http://www.w3.org/2000/svg">
<path fill-rule="evenodd" clip-rule="evenodd" d="M6.67189 1.0364C6.18514 1.19538 5.84707 1.74532 5.96045 2.19365C5.98323 2.2838 6.0267 2.40627 6.05702 2.46581C6.08734 2.52535 6.54802 3.01065 7.08074 3.54423L8.04929 4.51437L4.08276 8.47093C0.444887 12.0997 0.111345 12.442 0.056778 12.6022C-0.0196506 12.8266 -0.0188784 13.0806 0.0588486 13.3006C0.111731 13.4504 0.299609 13.6626 1.38895 14.8031C2.08663 15.5336 4.18684 17.6505 6.05608 19.5074C9.80533 23.2319 9.54091 22.9976 9.99608 22.9968C10.4002 22.9961 10.1641 23.2127 14.905 18.4926C18.3451 15.0676 19.2832 14.115 19.357 13.9717C19.4303 13.8296 19.4509 13.7397 19.4516 13.5576C19.4533 13.1663 19.3887 13.0803 18.1775 11.8605C17.5902 11.2691 15.7828 9.44876 14.161 7.81526C8.6098 2.22423 7.54271 1.16932 7.35536 1.08756C7.14043 0.993704 6.86559 0.973123 6.67189 1.0364ZM9.66535 6.16429C9.75795 6.28442 11.4281 7.97274 13.3768 9.91613C16.0939 12.6257 16.9128 13.4617 16.8894 13.5017C16.8727 13.5304 16.7879 13.6417 16.701 13.749L16.5431 13.9441L9.92797 13.9458L3.31282 13.9474L2.81284 13.4487L2.3129 12.95L2.98875 12.2855C7.93879 7.41871 9.44364 5.94829 9.47582 5.94685C9.48747 5.94633 9.57274 6.0442 9.66535 6.16429ZM20.5611 16.0639C20.3371 16.1673 19.8936 16.6053 19.3077 17.3018C18.7053 18.0178 18.2816 18.6987 18.0682 19.2934C17.9589 19.5981 17.9322 20.2467 18.0129 20.6354C18.1612 21.3493 18.6076 22.0291 19.21 22.4585C19.9468 22.9837 21.0165 23.1379 21.9296 22.8506C23.1563 22.4646 24 21.3129 24 20.024C24 19.123 23.2638 17.8761 21.9472 16.5474C21.5656 16.1624 21.4627 16.0778 21.318 16.0306C21.0596 15.9461 20.7904 15.9579 20.5611 16.0639Z" fill="#222222"/>
</svg>
