<svg width="137" height="24" viewBox="0 0 137 24" fill="none" xmlns="http://www.w3.org/2000/svg">
<path d="M8.07603 5.97603V8.40479H8.27063C9.37338 7.40346 10.6599 6.67909 12.1303 6.23169C13.6006 5.76298 15.4169 5.52863 17.5792 5.52863C18.3359 5.52863 19.0603 5.57124 19.7522 5.65646V13.1025C18.563 12.8682 17.3305 12.751 16.0548 12.751C13.7628 12.751 11.8816 13.1238 10.4113 13.8695C8.96256 14.6152 8.2382 16.0426 8.2382 18.1518V23.265H0V5.97603H8.07603Z" fill="#222222"/>
<path d="M49.0382 14.6365C49.0382 15.1478 49.0166 15.723 48.9734 16.3622H29.8049C29.9563 17.47 30.4536 18.2903 31.2969 18.8229C32.1618 19.3555 33.4592 19.6218 35.189 19.6218C36.7458 19.6218 37.8594 19.4514 38.5297 19.1105C39.2 18.7483 39.6324 18.3542 39.827 17.9281H48.8112C48.6382 19.7603 47.5679 21.2304 45.6002 22.3382C43.6542 23.4461 40.1838 24 35.189 24C30.3239 24 26.7778 23.2117 24.5507 21.6352C22.3235 20.0373 21.21 17.7044 21.21 14.6365C21.21 11.5686 22.3127 9.23569 24.5182 7.63782C26.7453 6.03995 30.2806 5.24101 35.1241 5.24101C39.9243 5.24101 43.438 6.03995 45.6651 7.63782C47.9138 9.23569 49.0382 11.5686 49.0382 14.6365ZM35.1241 9.61917C33.5889 9.61917 32.3997 9.83222 31.5564 10.2583C30.7347 10.6844 30.1941 11.3449 29.9347 12.2397H40.3135C40.054 11.3449 39.5027 10.6844 38.6594 10.2583C37.8377 9.83222 36.6593 9.61917 35.1241 9.61917Z" fill="#222222"/>
<path d="M77.1604 20.4847C77.1604 21.1238 77.182 21.6458 77.2253 22.0506C77.2901 22.4554 77.4199 22.7963 77.6145 23.0732V23.265H69.506C69.2249 22.9454 69.0844 22.3595 69.0844 21.5073V20.9321C68.2195 21.9334 66.987 22.7004 65.3869 23.233C63.8085 23.7443 61.8949 24 59.6461 24C57.0298 24 54.8892 23.5419 53.2242 22.6258C51.5809 21.6884 50.7592 20.2397 50.7592 18.2796C50.7592 16.4048 51.2998 15.0413 52.3809 14.1891C53.4837 13.3369 55.0838 12.8362 57.1811 12.6871L66.6843 11.9201C67.3546 11.8775 67.8411 11.771 68.1438 11.6005C68.4465 11.4301 68.5979 11.1638 68.5979 10.8016C68.5979 10.3542 68.306 10.0346 67.7222 9.84288C67.16 9.62983 66.2518 9.5233 64.9977 9.5233C63.8085 9.5233 62.8571 9.65113 62.1435 9.90679C61.4516 10.1625 61.0083 10.5992 60.8137 11.217H51.9917C52.0566 9.64048 52.608 8.41545 53.6459 7.54194C54.6837 6.66844 56.1 6.0719 57.8947 5.75233C59.711 5.41145 61.9922 5.24101 64.7382 5.24101C67.614 5.24101 69.9276 5.3795 71.6791 5.65646C73.4305 5.93342 74.7819 6.4767 75.7333 7.28629C76.6847 8.07457 77.1604 9.23569 77.1604 10.7696V20.4847ZM68.9546 15.2117C68.7817 15.3182 68.533 15.4141 68.2087 15.4993C67.8843 15.5632 67.5708 15.6165 67.2681 15.6591L61.7543 16.3302C60.9327 16.4368 60.3164 16.6285 59.9056 16.9055C59.5164 17.1824 59.3218 17.5872 59.3218 18.1198C59.3218 18.7164 59.5704 19.1425 60.0678 19.3981C60.5867 19.6538 61.3759 19.7816 62.4354 19.7816C64.2517 19.7816 65.7869 19.4514 67.041 18.7909C68.3168 18.1305 68.9546 17.1185 68.9546 15.755V15.2117Z" fill="#222222"/>
<path d="M98.5313 7.92543V0.12783H106.769V23.265H98.6934V21.3795H98.4988C97.5258 22.253 96.4123 22.9028 95.1581 23.3289C93.904 23.7763 92.4121 24 90.6823 24C87.0064 24 84.1955 23.2224 82.2495 21.6671C80.3251 20.0905 79.3629 17.7896 79.3629 14.7643C79.3629 11.739 80.3251 9.44873 82.2495 7.89348C84.1955 6.31691 87.0064 5.52863 90.6823 5.52863C92.3905 5.52863 93.85 5.73103 95.0609 6.13582C96.2933 6.54061 97.3853 7.13715 98.3367 7.92543H98.5313ZM93.2446 18.6951C95.1257 18.6951 96.5204 18.3542 97.4285 17.6724C98.3367 16.9694 98.7907 16 98.7907 14.7643C98.7907 13.5286 98.3367 12.5699 97.4285 11.8881C96.5204 11.1851 95.1257 10.8336 93.2446 10.8336C91.385 10.8336 90.0336 11.1638 89.1903 11.8242C88.347 12.4847 87.9254 13.4647 87.9254 14.7643C87.9254 16.0639 88.347 17.0439 89.1903 17.7044C90.0336 18.3648 91.385 18.6951 93.2446 18.6951Z" fill="#222222"/>
<path d="M109.559 5.97603H117.797V23.265H109.559V5.97603ZM109.494 0H117.862V4.02663H109.494V0Z" fill="#4B7EFF"/>
<path d="M133.523 17.4807C134.777 17.4807 135.804 17.4381 136.604 17.3529V23.265C136.085 23.3289 135.339 23.3928 134.366 23.4567C133.393 23.5206 132.474 23.5526 131.609 23.5526C129.317 23.5526 127.544 23.3715 126.29 23.0093C125.036 22.6258 124.149 22.0186 123.631 21.1877C123.133 20.3569 122.885 19.1851 122.885 17.6724V10.4501H119.414V5.97603H122.885V1.34221H131.123V5.97603H136.636V10.4501H131.123V16.1065C131.123 16.6391 131.296 17.0013 131.642 17.1931C132.009 17.3848 132.636 17.4807 133.523 17.4807Z" fill="#4B7EFF"/>
</svg>
