<svg width="156" height="28" viewBox="0 0 156 28" fill="none" xmlns="http://www.w3.org/2000/svg">
<path d="M11.1033 8.4092V11.0552H11.2993C12.5407 9.96631 13.9344 9.17142 15.4807 8.67053C17.0269 8.16964 19.0304 7.9192 21.4913 7.9192C22.3624 7.9192 23.19 7.96276 23.974 8.04987V17.3925C22.7327 17.153 21.2953 17.0332 19.662 17.0332C17.2229 17.0332 15.2084 17.4034 13.6187 18.1439C12.0507 18.8625 11.2667 20.2672 11.2667 22.3579V26.1145H0.715332V8.4092H11.1033Z" fill="#222222"/>
<path d="M57.0615 17.2619C57.0615 18.0894 57.0288 18.7645 56.9635 19.2872H36.1875C36.3182 20.2454 36.7755 20.9641 37.5595 21.4432C38.3435 21.9223 39.5522 22.1619 41.1855 22.1619C43.6246 22.1619 45.0837 21.6719 45.5628 20.6919H56.8002C56.6913 21.9332 56.2013 23.0112 55.3302 23.9259C54.4808 24.8188 52.9237 25.5483 50.6588 26.1145C48.4157 26.659 45.2579 26.9312 41.1855 26.9312C37.3091 26.9312 34.1948 26.561 31.8428 25.8205C29.4908 25.0801 27.7922 24.0021 26.7468 22.5865C25.7233 21.171 25.2115 19.3961 25.2115 17.2619C25.2115 15.1276 25.7233 13.3528 26.7468 11.9372C27.7922 10.5216 29.4908 9.44365 31.8428 8.7032C34.1948 7.94098 37.2982 7.55987 41.1528 7.55987C46.7715 7.55987 50.8222 8.37653 53.3048 10.0099C55.8093 11.6432 57.0615 14.0605 57.0615 17.2619ZM41.1528 12.3292C39.6937 12.3292 38.5722 12.5361 37.7882 12.9499C37.0042 13.3419 36.5033 13.9408 36.2855 14.7465H45.9875C45.7697 13.9408 45.2688 13.3419 44.4848 12.9499C43.7226 12.5361 42.6119 12.3292 41.1528 12.3292Z" fill="#222222"/>
<path d="M88.8393 23.3052C88.8393 23.9803 88.8502 24.5139 88.8719 24.9059C88.9155 25.2761 89.0135 25.6136 89.1659 25.9185V26.1145H78.7779C78.5602 25.8096 78.4513 25.2216 78.4513 24.3505V23.7625C77.5584 24.7425 76.2408 25.5156 74.4986 26.0819C72.7564 26.6481 70.6657 26.9312 68.2266 26.9312C65.3084 26.9312 62.9237 26.4739 61.0726 25.5592C59.2433 24.6228 58.3286 23.0983 58.3286 20.9859C58.3286 18.9823 58.9275 17.545 60.1253 16.6739C61.3448 15.8028 63.1742 15.291 65.6133 15.1385L75.9359 14.4525C76.6328 14.409 77.1337 14.311 77.4386 14.1585C77.7653 14.0061 77.9286 13.7448 77.9286 13.3745C77.9286 12.9608 77.6564 12.6668 77.112 12.4925C76.5675 12.2965 75.7291 12.1985 74.5966 12.1985C73.5731 12.1985 72.7346 12.3292 72.0813 12.5905C71.4279 12.8301 70.9706 13.233 70.7093 13.7992H59.5373C59.6244 12.1223 60.2451 10.8374 61.3993 9.94453C62.5535 9.02987 64.1759 8.4092 66.2666 8.08253C68.3573 7.73409 71.0686 7.55987 74.4006 7.55987C77.8197 7.55987 80.5419 7.71231 82.5673 8.0172C84.6144 8.30031 86.1715 8.86653 87.2386 9.71587C88.3057 10.5434 88.8393 11.763 88.8393 13.3745V23.3052ZM78.2879 18.0132C77.9613 18.2092 77.4059 18.3508 76.6219 18.4379L71.5586 19.0912C70.7311 19.2001 70.1322 19.3852 69.7619 19.6465C69.4135 19.9079 69.2393 20.289 69.2393 20.7899C69.2393 21.3125 69.4679 21.6828 69.9253 21.9005C70.3826 22.1183 71.0904 22.2272 72.0486 22.2272C73.8344 22.2272 75.3153 21.9223 76.4913 21.3125C77.6891 20.681 78.2879 19.7336 78.2879 18.4705V18.0132Z" fill="#222222"/>
<path d="M110.814 10.3365V2.46387H121.398V26.1145H111.01V24.3505H110.814C109.725 25.2216 108.506 25.8641 107.156 26.2779C105.805 26.7134 104.216 26.9312 102.386 26.9312C98.3356 26.9312 95.2867 26.1363 93.2396 24.5465C91.2142 22.9568 90.2016 20.583 90.2016 17.4252C90.2016 14.2674 91.2142 11.8936 93.2396 10.3039C95.2867 8.71409 98.3356 7.9192 102.386 7.9192C104.194 7.9192 105.751 8.12609 107.058 8.53987C108.364 8.95364 109.551 9.55253 110.618 10.3365H110.814ZM106.045 20.6919C109.442 20.6919 111.141 19.603 111.141 17.4252C111.141 15.2474 109.442 14.1585 106.045 14.1585C104.303 14.1585 103.05 14.4308 102.288 14.9752C101.526 15.5196 101.145 16.3363 101.145 17.4252C101.145 18.5141 101.526 19.3308 102.288 19.8752C103.05 20.4196 104.303 20.6919 106.045 20.6919Z" fill="#222222"/>
<path d="M123.565 8.40949H134.149V26.1148H123.565V8.40949ZM123.5 2.3335H134.215V6.5475H123.5V2.3335Z" fill="#62A1FF"/>
<path d="M151.395 18.9282C152.702 18.9282 153.78 18.8955 154.629 18.8302V26.1148C154.041 26.1802 153.17 26.2455 152.016 26.3108C150.861 26.3762 149.74 26.4088 148.651 26.4088C146.016 26.4088 143.98 26.2019 142.542 25.7882C141.105 25.3526 140.092 24.6666 139.504 23.7302C138.916 22.7719 138.622 21.4326 138.622 19.7122V13.5708H135.225V8.40949H138.622V3.7055H149.206V8.40949H154.662V13.5708H149.206V17.6215C149.206 18.1442 149.359 18.4926 149.664 18.6668C149.969 18.8411 150.546 18.9282 151.395 18.9282Z" fill="#62A1FF"/>
</svg>
