<svg width="256" height="182" viewBox="0 0 256 182" fill="none" xmlns="http://www.w3.org/2000/svg">
<g clip-path="url(#clip0_259_455)">
<path d="M202.223 88.5735H217.998C219.516 85.4477 219.824 81.823 219.912 78.301C219.993 75.1092 219.912 71.8586 218.944 68.8209C217.682 64.9277 214.983 61.6632 211.397 59.6941C207.811 57.7249 203.609 57.1997 199.648 58.2256C198.667 57.082 197.355 56.2718 195.894 55.9069C194.493 55.6061 190.335 56.0096 190.291 57.4404C190.308 57.8888 190.445 58.3244 190.687 58.7025C192.117 61.388 194.353 63.5599 196.114 66.04C200.257 71.7412 200.961 80.737 202.223 88.5735Z" fill="white"/>
<path d="M218.245 89.1801H202.537C202.45 89.1798 202.366 89.1489 202.299 89.0928C202.232 89.0367 202.187 88.959 202.172 88.8732C201.982 87.6525 201.799 86.4026 201.61 85.1454C200.616 78.3405 199.587 71.3017 196.155 66.5799C195.534 65.7247 194.84 64.8842 194.175 64.0655C192.87 62.5808 191.715 60.9697 190.729 59.2561C190.456 58.8162 190.305 58.3117 190.291 57.7942C190.301 57.5991 190.357 57.4092 190.453 57.2392C190.549 57.0693 190.684 56.924 190.846 56.8148C192.058 55.8572 195.118 55.6599 196.315 55.9157C197.769 56.2781 199.083 57.0641 200.091 58.1743C203.829 57.2896 207.757 57.7233 211.212 59.4022C213.167 60.3746 214.909 61.7264 216.337 63.379C217.765 65.0317 218.851 66.9521 219.53 69.0285C220.531 72.1057 220.596 75.4461 220.516 78.5963C220.428 82.0829 220.129 85.7521 218.573 88.9536C218.547 89.0192 218.501 89.0755 218.443 89.1158C218.384 89.156 218.316 89.1784 218.245 89.1801ZM202.844 88.4492H218.018C219.428 85.4232 219.698 81.9294 219.786 78.5963C219.881 75.0294 219.786 72.0838 218.836 69.277C217.604 65.4913 214.976 62.3187 211.487 60.4063C207.998 58.4939 203.912 57.9857 200.061 58.9856C199.998 59.0022 199.931 59.0015 199.868 58.9835C199.806 58.9655 199.749 58.9309 199.704 58.8833C198.781 57.7995 197.542 57.0326 196.162 56.6905C195.125 56.4639 192.277 56.6905 191.291 57.4214C191.028 57.6334 191.021 57.7942 191.021 57.8454C191.048 58.2268 191.168 58.5957 191.371 58.9198C192.339 60.5891 193.467 62.1606 194.738 63.6124C195.41 64.431 196.111 65.2862 196.746 66.1633C200.28 71.024 201.325 78.1505 202.332 85.0431C202.5 86.1907 202.668 87.3309 202.844 88.4492Z" fill="#231F20"/>
<path d="M219.794 57.0683C221.789 55.5547 223.702 53.8634 226.038 52.9112C226.229 52.8109 226.445 52.7664 226.661 52.7833C226.865 52.8304 227.046 52.9433 227.173 53.1031C227.461 53.452 227.657 53.8616 227.746 54.2979C227.835 54.7342 227.814 55.1846 227.685 55.6116C227.417 56.4637 226.979 57.2577 226.394 57.9495C224.896 59.908 223.133 61.6668 221.151 63.1797C219.856 64.2693 218.311 65.0509 216.641 65.4608C214.357 65.9085 209.106 63.7553 211.45 60.8204C212.117 59.9819 213.675 60.1098 214.594 59.8753C216.503 59.2769 218.27 58.3229 219.794 57.0683Z" fill="white"/>
<path d="M215.689 66.1224C213.953 66.1224 211.57 65.1635 210.651 63.703C210.354 63.2362 210.218 62.6843 210.264 62.1324C210.311 61.5805 210.537 61.0593 210.908 60.6492C211.467 59.9116 212.438 59.8009 213.291 59.6903C213.604 59.6604 213.913 59.6086 214.218 59.5354C216.068 58.9229 217.781 57.956 219.264 56.6881L220.374 55.7956C221.922 54.4088 223.655 53.2444 225.523 52.3361C225.776 52.2055 226.063 52.1517 226.346 52.1812C226.637 52.2391 226.898 52.3986 227.082 52.6312C227.41 53.0388 227.635 53.5201 227.738 54.0339C227.84 54.5477 227.817 55.0788 227.67 55.5817C227.389 56.5134 226.932 57.3822 226.324 58.1413C224.823 60.2016 223.051 62.0499 221.058 63.6366C219.728 64.8027 218.143 65.639 216.432 66.0782C216.187 66.12 215.938 66.1349 215.689 66.1224ZM219.72 57.2709C218.16 58.5908 216.359 59.593 214.417 60.2214C214.078 60.3068 213.734 60.3659 213.387 60.3984C212.652 60.4943 211.865 60.5902 211.497 61.0697C211.222 61.3623 211.051 61.7381 211.011 62.1384C210.971 62.5387 211.064 62.941 211.276 63.2825C212.144 64.6767 214.843 65.5987 216.292 65.3036C217.891 64.8887 219.369 64.1029 220.61 63.0096C222.555 61.4586 224.286 59.6553 225.758 57.6471C226.307 56.9678 226.722 56.189 226.979 55.353C227.093 54.9676 227.114 54.5605 227.039 54.1654C226.965 53.7703 226.798 53.3986 226.552 53.0811C226.478 52.9829 226.375 52.9106 226.258 52.8746C226.114 52.8737 225.973 52.9092 225.846 52.9779C224.024 53.8658 222.334 55.0028 220.823 56.3562L219.734 57.2414L219.72 57.2709Z" fill="#231F20"/>
<path d="M106.457 41.2531C105.301 36.0131 103.761 30.8242 103.299 25.4747C102.836 20.1252 103.559 14.4546 106.566 10.032C107.699 8.18439 109.419 6.77954 111.445 6.04728C113.223 5.49993 116.274 6.50706 116.274 6.50706C117.749 5.41799 119.281 4.40941 120.864 3.48567C124.239 1.78522 128.092 1.16488 131.8 0.799981C137.127 0.281819 143.3 0.559145 146.683 4.74093C149.17 7.81341 149.387 12.0974 149.488 16.0602L149.755 26.2191" fill="white"/>
<path d="M106.255 41.2533C106.169 41.252 106.087 41.2218 106.02 41.1676C105.954 41.1134 105.908 41.0385 105.89 40.9549C105.584 39.594 105.255 38.2258 104.92 36.8649C103.882 33.0285 103.138 29.1187 102.695 25.1696C102.316 20.803 102.585 14.566 106.058 9.5225C107.246 7.61443 109.045 6.16285 111.164 5.40332C112.806 4.90843 115.366 5.59981 116.074 5.81087C117.531 4.75766 119.046 3.78581 120.611 2.89978C124.208 1.11674 128.278 0.527248 131.78 0.192473C139.272 -0.535299 144.291 0.796523 147.1 4.26072C149.799 7.55024 149.923 12.3026 150.017 15.7668L150.36 25.8755C150.362 25.9747 150.325 26.0706 150.257 26.1428C150.189 26.2149 150.095 26.2575 149.996 26.2612C149.946 26.2632 149.897 26.2553 149.85 26.2379C149.804 26.2206 149.762 26.1942 149.726 26.1604C149.69 26.1265 149.661 26.0857 149.641 26.0406C149.621 25.9954 149.61 25.9467 149.609 25.8974L149.339 15.7595C149.23 11.5675 148.938 7.5648 146.596 4.70465C143.933 1.45152 139.126 0.207028 131.904 0.905688C128.468 1.24046 124.485 1.8154 120.962 3.5475C119.382 4.46034 117.853 5.45637 116.38 6.53136C116.332 6.5658 116.277 6.58838 116.219 6.59724C116.16 6.6061 116.101 6.60098 116.045 6.58231C116.045 6.58231 113.054 5.62165 111.398 6.12381C109.444 6.84484 107.784 8.1909 106.678 9.95189C103.33 14.8134 103.074 20.8685 103.446 25.1041C103.88 29.016 104.611 32.8892 105.635 36.6902C105.963 38.0584 106.299 39.4194 106.605 40.7948C106.616 40.8426 106.617 40.8921 106.608 40.9403C106.6 40.9886 106.582 41.0346 106.555 41.0759C106.529 41.1172 106.495 41.1528 106.454 41.1808C106.414 41.2087 106.368 41.2284 106.321 41.2388L106.255 41.2533Z" fill="#231F20"/>
<path d="M164.783 181.371C161.12 114.204 166.923 89.1891 164.05 82.2754C157.244 65.9977 117.356 60.6666 117.356 60.6666C117.356 60.6666 74.1933 60.4478 64.6024 83.1943C62.1992 88.912 45.5525 128.6 43.9186 153.089C43.0906 165.334 55.8834 162.862 67.0203 163.89V181.393L164.783 181.371Z" fill="#4B7EFF"/>
<path d="M141.797 63.8909L143.532 75.1474C143.532 75.1474 140.969 87.3687 128.559 84.4961C124.936 83.6533 121.55 82.0065 118.653 79.6782C115.755 77.3498 113.42 74.3997 111.821 71.0468L110.43 44.8719C110.43 44.8719 119.56 39.8942 116.676 20.02C116.676 20.02 130.499 26.6935 148.892 24.1864C148.892 24.1864 153.285 44.6526 151.908 54.2352C150.532 63.8179 141.797 63.8909 141.797 63.8909Z" fill="white"/>
<path d="M132.46 84.9314C131.232 84.9219 130.008 84.7726 128.814 84.4864C125.155 83.6147 121.737 81.9369 118.809 79.5753C115.881 77.2137 113.517 74.2279 111.889 70.8358C111.882 70.7948 111.882 70.7527 111.889 70.7117L110.431 44.5851C110.427 44.5151 110.444 44.4455 110.479 44.3847C110.514 44.3239 110.565 44.2744 110.628 44.2422C110.715 44.1912 119.458 39.1351 116.658 19.8229C116.651 19.7552 116.662 19.6869 116.688 19.6243C116.715 19.5618 116.757 19.5071 116.811 19.4654C116.87 19.4314 116.937 19.4136 117.004 19.4136C117.072 19.4136 117.139 19.4314 117.198 19.4654C127.271 23.6448 138.277 25.0578 149.078 23.5584C149.173 23.545 149.268 23.5676 149.347 23.6217C149.425 23.6758 149.48 23.7573 149.501 23.8502C149.676 24.6892 153.877 44.4465 152.506 53.9749C151.266 62.5038 144.302 63.7369 142.516 63.9047L144.185 74.7318C144.193 74.7777 144.193 74.8245 144.185 74.8704C144.134 75.0965 142.975 80.408 138.541 83.2388C136.723 84.3855 134.609 84.974 132.46 84.9314ZM112.575 70.6096C114.16 73.8783 116.453 76.7528 119.287 79.0244C122.121 81.296 125.425 82.9076 128.96 83.7422C132.533 84.5739 135.617 84.1872 138.104 82.604C142.02 80.1088 143.259 75.3738 143.405 74.7682L141.684 63.6055C141.675 63.5521 141.677 63.4972 141.691 63.4447C141.705 63.3922 141.73 63.3434 141.765 63.3017C141.799 63.2599 141.843 63.2263 141.892 63.2032C141.941 63.1801 141.995 63.168 142.049 63.1678C142.392 63.1678 150.413 62.9854 151.747 53.8582C153.023 45.1031 149.385 27.0458 148.83 24.3463C138.226 25.7068 127.45 24.3434 117.519 20.3847C119.91 38.2888 112.618 43.892 111.204 44.7675L112.575 70.6096Z" fill="#231F20"/>
<path d="M135.565 35.7935C135.565 35.7935 141.523 46.7404 139.743 48.4018C137.963 50.0631 133.42 48.4018 133.42 48.4018" fill="white"/>
<path d="M136.928 49.7382C135.608 49.6914 134.302 49.4438 133.056 49.0039C133.011 48.9883 132.97 48.9639 132.935 48.9321C132.899 48.9003 132.871 48.8617 132.85 48.8187C132.83 48.7757 132.818 48.729 132.816 48.6814C132.814 48.6338 132.821 48.5862 132.837 48.5413C132.87 48.4497 132.937 48.3746 133.025 48.3321C133.112 48.2896 133.212 48.283 133.304 48.3137C133.348 48.3137 137.542 49.7823 139.149 48.3578C140.231 47.3665 137.359 40.7287 134.978 36.3377C134.931 36.252 134.92 36.1513 134.948 36.0576C134.975 35.964 135.038 35.8851 135.124 35.8384C135.209 35.7917 135.309 35.7809 135.402 35.8084C135.496 35.836 135.574 35.8996 135.62 35.9852C136.621 37.8356 141.538 47.1609 139.646 48.8938C138.875 49.502 137.907 49.8027 136.928 49.7382Z" fill="#231F20"/>
<path d="M126.58 36.0575C127.249 36.0293 127.739 34.7578 127.675 33.2177C127.61 31.6775 127.015 30.4519 126.346 30.4801C125.677 30.5084 125.187 31.7798 125.251 33.3199C125.316 34.8601 125.911 36.0858 126.58 36.0575Z" fill="#231F20"/>
<path d="M144.58 37.1802C145.25 37.1533 145.743 35.8819 145.681 34.3404C145.62 32.7988 145.027 31.571 144.357 31.5978C143.688 31.6247 143.194 32.8961 143.256 34.4376C143.317 35.9792 143.91 37.207 144.58 37.1802Z" fill="#231F20"/>
<path d="M118.295 39.5199C117.24 37.6744 115.849 36.0533 114.198 34.7445C113.342 33.9743 112.275 33.4932 111.142 33.3667C110.213 33.3753 109.305 33.6529 108.523 34.1674C107.351 34.8758 106.337 35.8289 105.548 36.9648C104.758 38.1006 104.21 39.3939 103.94 40.7607C103.68 42.0276 103.728 43.3407 104.081 44.5839C104.761 46.508 106.076 48.1283 107.798 49.1646C109.51 50.1786 111.332 50.9848 113.226 51.5667" fill="white"/>
<path d="M113.294 52.1731H113.171C111.189 51.5625 109.283 50.7206 107.491 49.6641C105.638 48.5585 104.227 46.824 103.503 44.7645C103.119 43.4268 103.067 42.0129 103.351 40.6494C103.639 39.192 104.226 37.813 105.073 36.6026C105.921 35.3922 107.009 34.3778 108.268 33.6257C109.135 33.0586 110.143 32.758 111.173 32.7598C112.416 32.8947 113.588 33.4109 114.536 34.24C116.289 35.6115 117.769 37.3123 118.894 39.2506C118.909 39.3314 118.897 39.4147 118.862 39.4885C118.827 39.5622 118.769 39.6225 118.698 39.6605C118.626 39.6985 118.545 39.7123 118.465 39.6998C118.386 39.6873 118.312 39.6492 118.255 39.5911C117.189 37.7393 115.783 36.1136 114.115 34.8025C113.297 34.0764 112.286 33.6129 111.21 33.4703C110.324 33.4688 109.457 33.7256 108.711 34.2104C107.544 34.9083 106.535 35.8491 105.749 36.9713C104.963 38.0936 104.418 39.3721 104.15 40.7235C103.896 41.9497 103.943 43.2209 104.288 44.424C104.948 46.305 106.232 47.8915 107.919 48.9092C109.65 49.9644 111.495 50.8113 113.418 51.433C113.464 51.4488 113.507 51.4739 113.544 51.5067C113.581 51.5395 113.611 51.5794 113.632 51.6241C113.654 51.6689 113.667 51.7175 113.67 51.7673C113.673 51.817 113.666 51.8669 113.65 51.9141C113.625 51.9895 113.576 52.055 113.513 52.1014C113.449 52.1478 113.373 52.1729 113.294 52.1731Z" fill="#231F20"/>
<path d="M142.077 63.5721C134.97 64.6925 127.7 63.4624 121.32 60.0601C121.32 60.0601 131.9 76.7443 143.705 74.393L142.077 63.5721Z" fill="#231F20"/>
<path d="M141.113 74.6201C136.824 74.6201 132.194 72.4828 127.585 68.3366C125.032 66.0171 122.752 63.4244 120.788 60.607C120.741 60.5454 120.715 60.4704 120.715 60.3933C120.715 60.3162 120.741 60.2412 120.788 60.1796C120.841 60.1201 120.913 60.08 120.992 60.0658C121.071 60.0515 121.153 60.064 121.224 60.1012C127.507 63.2794 134.652 64.436 141.644 63.4068C141.692 63.3963 141.743 63.396 141.792 63.4058C141.84 63.4156 141.887 63.4354 141.927 63.4638C141.968 63.4906 142.002 63.5253 142.028 63.5658C142.055 63.6062 142.072 63.6515 142.08 63.6989L143.701 73.9931C143.716 74.0846 143.694 74.1781 143.639 74.2539C143.585 74.3297 143.503 74.3819 143.41 74.3992C142.653 74.5424 141.884 74.6163 141.113 74.6201ZM122.213 61.3337C124.837 64.8316 133.546 75.2612 142.981 73.758L141.491 64.1691C134.916 65.0529 128.22 64.0688 122.198 61.3337H122.213Z" fill="#231F20"/>
<path d="M199.834 55.0104L199.666 55.2768C199.306 55.8487 198.735 56.2539 198.077 56.4032C197.42 56.5526 196.73 56.4338 196.159 56.0731L179.092 45.2789L181.972 40.6997L199.033 51.4901C199.604 51.8508 200.008 52.4239 200.157 53.0833C200.306 53.7428 200.187 54.4345 199.827 55.0064L199.834 55.0104Z" fill="white"/>
<path d="M197.504 57.0267C196.959 57.0267 196.425 56.8645 195.967 56.5594L178.966 45.4506C178.923 45.4253 178.887 45.3905 178.859 45.3488C178.831 45.307 178.813 45.2594 178.805 45.2094C178.794 45.1622 178.792 45.1133 178.8 45.0654C178.807 45.0175 178.824 44.9716 178.849 44.9305L181.72 40.2127C181.773 40.1288 181.855 40.0698 181.949 40.0486C182.043 40.0274 182.142 40.0458 182.223 40.0996L199.224 51.2085C199.873 51.6348 200.332 52.3086 200.503 53.0834C200.673 53.8583 200.541 54.6714 200.135 55.346L199.967 55.6249C199.556 56.2975 198.903 56.7743 198.153 56.9513C197.94 56.9987 197.722 57.0239 197.504 57.0267ZM179.636 45.021L196.353 55.9188C196.593 56.0792 196.862 56.1879 197.144 56.2384C197.426 56.2889 197.714 56.2802 197.993 56.2128C198.557 56.0914 199.052 55.7448 199.37 55.2481L199.537 54.9768C199.841 54.472 199.94 53.8639 199.813 53.2842C199.686 52.7045 199.344 52.1998 198.86 51.8792L182.121 40.9286L179.636 45.021Z" fill="#231F20"/>
<path d="M180.079 48.6445L184.702 41.2095L180.535 38.6042L175.912 46.0392L180.079 48.6445Z" fill="white"/>
<path d="M179.75 47.9268C179.679 47.9267 179.61 47.906 179.55 47.8673L175.341 45.2043C175.299 45.1785 175.263 45.1447 175.235 45.1049C175.206 45.0651 175.186 45.0201 175.175 44.9724C175.164 44.9247 175.163 44.8753 175.171 44.827C175.179 44.7787 175.196 44.7325 175.222 44.691L179.951 37.1854C179.976 37.1431 180.009 37.1063 180.049 37.0772C180.089 37.0481 180.134 37.0274 180.182 37.0163C180.229 37.0051 180.279 37.0038 180.327 37.0125C180.376 37.0211 180.422 37.0395 180.463 37.0664L184.672 39.7295C184.714 39.7544 184.75 39.7878 184.778 39.8275C184.806 39.8672 184.826 39.9123 184.836 39.9601C184.858 40.0565 184.842 40.1579 184.791 40.2427L180.055 47.7409C180.003 47.8237 179.92 47.8825 179.825 47.9045L179.75 47.9268ZM176.039 44.7654L179.624 46.997L183.96 40.1163L180.374 37.8847L176.039 44.7654Z" fill="#231F20"/>
<path d="M221.867 70.6648L223.239 68.4837C224.145 67.0429 223.715 65.1384 222.278 64.2297L198.456 49.1639C197.02 48.2552 195.12 48.6865 194.214 50.1272L192.842 52.3084C191.936 53.7491 192.366 55.6537 193.803 56.5624L217.624 71.6282C219.061 72.5369 220.961 72.1056 221.867 70.6648Z" fill="white"/>
<path d="M219.351 72.1932C218.704 72.1922 218.07 72.0107 217.525 71.6697L193.711 56.9174C193.329 56.6807 192.998 56.3723 192.737 56.0098C192.476 55.6474 192.29 55.238 192.19 54.8051C192.09 54.3721 192.079 53.9242 192.155 53.4867C192.232 53.0493 192.396 52.631 192.637 52.2558L194.003 50.1042C194.493 49.3489 195.267 48.8143 196.156 48.6168C197.046 48.4193 197.978 48.575 198.751 49.05L222.565 63.8023C222.947 64.039 223.278 64.3474 223.539 64.7098C223.8 65.0723 223.986 65.4817 224.086 65.9146C224.185 66.3475 224.197 66.7955 224.121 67.2329C224.044 67.6704 223.88 68.0887 223.639 68.4639L222.273 70.6154C222.027 70.995 221.707 71.3225 221.33 71.5787C220.954 71.8349 220.529 72.0146 220.081 72.1071C219.842 72.1618 219.597 72.1907 219.351 72.1932ZM196.918 49.2436C196.459 49.2428 196.007 49.3561 195.605 49.5731C195.202 49.79 194.862 50.1036 194.617 50.4843L193.251 52.6359C193.059 52.9309 192.93 53.2605 192.87 53.6053C192.809 53.95 192.82 54.3032 192.9 54.644C192.979 54.985 193.125 55.3074 193.331 55.5929C193.536 55.8784 193.797 56.1213 194.098 56.3078L217.912 71.0529C218.522 71.4284 219.258 71.5516 219.96 71.3957C220.662 71.2399 221.273 70.8175 221.659 70.221L223.025 68.0695C223.215 67.7738 223.344 67.4442 223.404 67.0996C223.465 66.755 223.455 66.4021 223.377 66.0611C223.298 65.72 223.151 65.3976 222.946 65.1121C222.74 64.8267 222.479 64.5839 222.178 64.3975L198.364 49.6524C197.928 49.3942 197.427 49.2624 196.918 49.2723V49.2436Z" fill="#231F20"/>
<path d="M141.247 18.1712C138.79 22.0785 137.542 26.6289 137.663 31.247C137.784 35.8651 139.268 40.3435 141.927 44.1161C144.585 47.8886 148.3 50.7858 152.6 52.4415C156.901 54.0971 161.594 54.4367 166.087 53.4174C170.58 52.3982 174.671 50.0657 177.842 46.7151C181.013 43.3644 183.122 39.146 183.903 34.5931C184.684 30.0403 184.101 25.3575 182.228 21.1368C180.356 16.9161 177.277 13.3471 173.382 10.881C168.156 7.57701 161.836 6.48892 155.81 7.8559C149.784 9.22288 144.546 12.9331 141.247 18.1712Z" fill="white"/>
<path d="M160.911 53.9931C156.748 53.9902 152.662 52.8673 149.079 50.7416C145.496 48.6158 142.547 45.5649 140.54 41.9069C138.532 38.249 137.54 34.1179 137.666 29.9443C137.792 25.7707 139.032 21.7075 141.256 18.1781C143.417 14.7412 146.434 11.9292 150.01 10.0197C153.586 8.11023 157.596 7.16939 161.645 7.2901C165.695 7.41081 169.642 8.5889 173.099 10.708C176.555 12.8271 179.4 15.8139 181.354 19.3734C183.307 22.9329 184.301 26.942 184.237 31.0046C184.174 35.0672 183.054 39.0429 180.99 42.5389C178.925 46.0348 175.988 48.9302 172.466 50.939C168.945 52.9478 164.962 54.0005 160.911 53.9931ZM141.864 18.5917C139.077 23.021 137.908 28.2825 138.555 33.4797C139.203 38.6768 141.627 43.4881 145.414 47.0936C149.202 50.6991 154.119 52.8758 159.327 53.2528C164.535 53.6299 169.713 52.1838 173.977 49.1612C178.242 46.1385 181.329 41.7263 182.714 36.6762C184.099 31.6261 183.695 26.2507 181.571 21.4659C179.447 16.6811 175.735 12.783 171.067 10.4357C166.399 8.08839 161.064 7.4372 155.971 8.59306C150.134 9.92168 145.061 13.5173 141.864 18.5917Z" fill="#231F20"/>
<path d="M170.788 14.9834C173.875 16.935 176.316 19.7611 177.802 23.1041C179.288 26.447 179.752 30.1568 179.135 33.7641C178.518 37.3715 176.848 40.7143 174.337 43.3699C171.825 46.0254 168.584 47.8744 165.024 48.6829C161.465 49.4914 157.746 49.2231 154.338 47.912C150.93 46.6009 147.987 44.3058 145.88 41.3171C143.773 38.3284 142.598 34.7802 142.502 31.1215C142.406 27.4628 143.395 23.8578 145.343 20.7625C147.953 16.6136 152.1 13.6742 156.872 12.5905C161.643 11.5068 166.649 12.3675 170.788 14.9834Z" fill="white"/>
<path d="M160.931 49.1254C158.072 49.1259 155.251 48.4589 152.693 47.177C150.135 45.8951 147.909 44.0336 146.191 41.7396C144.474 39.4456 143.312 36.7821 142.797 33.9596C142.282 31.1372 142.429 28.2333 143.225 25.4775C144.022 22.7218 145.446 20.1897 147.386 18.0817C149.326 15.9736 151.728 14.3473 154.402 13.3314C157.076 12.3155 159.949 11.9379 162.794 12.2283C165.638 12.5188 168.377 13.4694 170.792 15.005C174.177 17.1432 176.776 20.3285 178.198 24.0797C179.619 27.8309 179.786 31.9444 178.672 35.799C177.558 39.6535 175.225 43.0398 172.025 45.4465C168.824 47.8532 164.93 49.1496 160.931 49.1399V49.1254ZM160.989 12.835C159.662 12.8351 158.34 12.9831 157.046 13.2762C153.047 14.1831 149.486 16.4532 146.968 19.6996C144.451 22.946 143.133 26.9679 143.24 31.0801C143.346 35.1922 144.87 39.14 147.552 42.251C150.234 45.362 153.908 47.4436 157.948 48.1411C161.988 48.8386 166.143 48.1089 169.707 46.0763C173.271 44.0437 176.023 40.834 177.492 36.994C178.962 33.1541 179.06 28.9215 177.768 25.0174C176.477 21.1134 173.877 17.7795 170.41 15.5837C167.593 13.7896 164.325 12.8363 160.989 12.835Z" fill="#D1D3D4"/>
<path d="M142.495 51.5103C142.495 51.5103 129.909 61.1419 124.95 42.4668L142.495 51.5103Z" fill="white"/>
<path d="M135.099 54.5998C134.177 54.602 133.26 54.4485 132.386 54.1454C128.714 52.8565 126.016 48.8856 124.356 42.337C124.332 42.2382 124.347 42.1336 124.398 42.0463C124.449 41.959 124.531 41.896 124.627 41.8713C124.723 41.8466 124.824 41.8622 124.908 41.9146C124.993 41.967 125.054 42.0519 125.078 42.1507C126.665 48.4386 129.212 52.2382 132.639 53.4376C137.205 55.0468 141.866 51.3888 141.909 51.3516C141.947 51.3213 141.99 51.2988 142.035 51.2856C142.081 51.2724 142.129 51.2686 142.176 51.2745C142.224 51.2804 142.269 51.2958 142.311 51.3199C142.352 51.344 142.389 51.3763 142.418 51.4149C142.447 51.4536 142.469 51.4978 142.482 51.5451C142.495 51.5924 142.498 51.6419 142.493 51.6906C142.487 51.7394 142.472 51.7866 142.449 51.8294C142.425 51.8722 142.394 51.9098 142.357 51.9402C140.249 53.5555 137.721 54.4819 135.099 54.5998Z" fill="#231F20"/>
<path d="M206.666 61.8061C207.455 61.444 207.674 60.4447 207.703 59.5757C207.752 57.9392 207.472 56.3094 206.878 54.7818L209.755 61.0602C210.235 62.3164 210.957 63.4676 211.881 64.4493C212.352 64.9309 212.953 65.2692 213.611 65.4244C214.27 65.5796 214.959 65.5453 215.599 65.3255C217.388 64.529 217.688 62.1392 217.439 60.213C217.216 58.4122 216.736 56.652 216.015 54.9845C215.462 53.4815 214.461 52.1808 213.145 51.2551C211.779 50.4151 209.836 50.3499 208.689 51.4506C207.433 49.5461 204.84 46.1208 202.064 46.8015C200.245 47.2433 200.457 48.2499 200.823 49.9082C201.327 52.1458 203.467 63.2906 206.666 61.8061Z" fill="white"/>
<path d="M214.746 66.1264C213.678 66.0888 212.661 65.6507 211.889 64.8956C210.944 63.854 210.205 62.6353 209.713 61.3067L208.335 58.1998C208.374 58.6931 208.386 59.1882 208.371 59.6828C208.328 61.0249 207.9 61.9073 207.131 62.2929C206.899 62.4134 206.642 62.4762 206.381 62.4762C206.12 62.4762 205.863 62.4134 205.63 62.2929C203.455 61.1806 202.004 55.3821 200.953 50.4289L200.822 49.8357C200.481 48.2489 200.155 46.7511 202.323 46.2098C204.492 45.6685 206.74 47.2627 209.06 50.7848C209.739 50.3451 210.527 50.1117 211.33 50.1117C212.134 50.1117 212.921 50.3451 213.6 50.7848C214.975 51.7689 216.021 53.1617 216.595 54.7741C217.322 56.5136 217.811 58.3477 218.046 60.2241C218.176 61.2696 218.408 64.7547 216.008 65.8447C215.612 66.0313 215.182 66.1275 214.746 66.1264ZM207.168 54.3589C207.237 54.3585 207.304 54.3786 207.362 54.4168C207.42 54.455 207.466 54.5095 207.494 54.5739L210.351 61.0027C210.817 62.2402 211.506 63.3771 212.382 64.3543C212.798 64.7987 213.329 65.1129 213.914 65.2599C214.498 65.407 215.111 65.3809 215.682 65.1847C217.625 64.2949 217.408 61.2474 217.299 60.3353C217.075 58.5254 216.607 56.7561 215.906 55.0781C215.39 53.6081 214.446 52.3349 213.201 51.4299C212.07 50.6884 210.301 50.5253 209.213 51.5856C209.176 51.625 209.13 51.6548 209.08 51.6729C209.029 51.6909 208.976 51.6966 208.923 51.6895C208.87 51.6829 208.82 51.6649 208.775 51.6368C208.73 51.6087 208.691 51.571 208.662 51.5263C207.117 49.1016 204.789 46.3358 202.476 46.9142C201.069 47.2701 201.127 47.893 201.511 49.6577L201.634 50.2584C202.164 52.7869 203.774 60.4762 205.935 61.5811C206.069 61.6525 206.218 61.6899 206.37 61.6899C206.521 61.6899 206.671 61.6525 206.805 61.5811C207.436 61.277 207.603 60.3502 207.625 59.6235C207.673 57.9956 207.402 56.3743 206.827 54.8557C206.809 54.8114 206.8 54.7639 206.8 54.7161C206.801 54.6682 206.81 54.6209 206.828 54.5768C206.846 54.5327 206.873 54.4927 206.906 54.4591C206.94 54.4255 206.979 54.399 207.023 54.3811C207.069 54.3632 207.118 54.3557 207.168 54.3589Z" fill="#231F20"/>
<path d="M196.945 59.4531C196.945 59.4531 205.66 62.6634 206.625 72.1931L196.945 59.4531Z" fill="white"/>
<path d="M206.862 72.1933C206.774 72.1936 206.688 72.1607 206.623 72.101C206.558 72.0414 206.518 71.9594 206.51 71.8715C205.598 62.7668 197.255 59.5697 197.176 59.5411C197.087 59.5059 197.016 59.4377 196.977 59.3508C196.938 59.264 196.935 59.1655 196.968 59.0762C197.002 58.9884 197.069 58.9174 197.155 58.8786C197.241 58.8397 197.339 58.8362 197.427 58.8688C197.521 58.8688 206.273 62.2375 207.228 71.8C207.233 71.847 207.229 71.8945 207.215 71.9398C207.202 71.9851 207.179 72.0272 207.149 72.0638C207.119 72.1004 207.082 72.1307 207.04 72.1529C206.998 72.1751 206.952 72.1889 206.905 72.1933H206.862Z" fill="#231F20"/>
<path d="M157.7 74.6201C157.7 74.6201 194.333 108.968 194.714 106.717C197.136 92.6342 199.06 80.5907 199.06 80.5907L222.96 81.5627C222.96 81.5627 222.96 148.796 206.861 150.426C194.67 151.653 152.175 111.92 152.175 111.92L157.7 74.6201Z" fill="#4B7EFF"/>
<path d="M163.876 167.44C163.785 167.439 163.698 167.402 163.633 167.337C163.567 167.272 163.526 167.184 163.519 167.089L157.016 87.0629C157.03 86.981 157.071 86.9064 157.13 86.8507C157.189 86.7951 157.264 86.7613 157.344 86.7546C157.423 86.748 157.503 86.7688 157.57 86.814C157.637 86.8591 157.688 86.926 157.715 87.0044L164.274 167.031C164.278 167.08 164.273 167.129 164.258 167.176C164.244 167.223 164.221 167.266 164.19 167.303C164.16 167.341 164.122 167.371 164.08 167.394C164.038 167.416 163.993 167.429 163.946 167.433L163.876 167.44Z" fill="#231F20"/>
<path d="M108.057 165.62L60.5823 164.069C60.5322 164.067 60.483 164.055 60.4374 164.034C60.3919 164.013 60.3509 163.984 60.3169 163.947C60.2828 163.91 60.2563 163.867 60.239 163.82C60.2216 163.773 60.2137 163.722 60.2156 163.672C60.223 163.572 60.268 163.479 60.3415 163.41C60.415 163.342 60.5115 163.304 60.6116 163.305L107.713 164.848L109.055 139.566L76.2093 135.671C76.1568 135.663 76.1065 135.645 76.0612 135.617C76.0159 135.589 75.9765 135.553 75.9453 135.51C75.916 135.466 75.8958 135.417 75.8857 135.365C75.8756 135.313 75.8759 135.26 75.8866 135.208C80.1618 117.107 86.505 89.7087 86.4317 88.4225C86.4097 88.3261 86.4267 88.2248 86.4789 88.1408C86.5311 88.0569 86.6143 87.997 86.7104 87.9742C86.8103 87.9542 86.9141 87.9736 87.0002 88.0284C87.0862 88.0831 87.1479 88.169 87.1724 88.2682C87.451 89.3853 78.7392 126.433 76.7226 134.966L109.495 138.861C109.59 138.872 109.677 138.919 109.739 138.993C109.8 139.067 109.831 139.162 109.825 139.258L108.446 165.26C108.44 165.358 108.397 165.451 108.324 165.518C108.252 165.585 108.156 165.622 108.057 165.62Z" fill="#231F20"/>
<path d="M140.145 113.447L184.845 121.596L172.101 181.393L125.555 176.016L140.145 113.447Z" fill="#231F20"/>
<path d="M171.788 182H171.744L125.272 176.592C125.221 176.585 125.173 176.567 125.129 176.541C125.085 176.515 125.047 176.48 125.016 176.438C124.988 176.395 124.968 176.347 124.958 176.297C124.948 176.247 124.948 176.195 124.958 176.144L139.522 113.126C139.543 113.033 139.599 112.952 139.678 112.9C139.757 112.848 139.853 112.829 139.946 112.846L184.547 121.061C184.594 121.069 184.64 121.086 184.68 121.113C184.72 121.14 184.755 121.174 184.781 121.215C184.836 121.3 184.857 121.402 184.839 121.502L172.117 181.714C172.1 181.79 172.059 181.86 172 181.911C171.94 181.963 171.866 181.994 171.788 182ZM125.762 175.902L171.496 181.229L184.064 121.715L140.158 113.633L125.762 175.902Z" fill="#231F20"/>
<path d="M145.506 141.217C145.16 137.319 132.402 142.623 132.402 142.623C132.402 142.623 136.003 134.492 134.071 133.012C132.138 131.533 125.641 141.312 125.641 141.312C120.186 142.149 114.676 142.587 109.157 142.623L108.01 160.767C126.31 159.455 138.179 158.938 138.745 157.772C139.862 155.448 145.851 145.115 145.506 141.217Z" fill="white"/>
<path d="M108.349 161.351C108.305 161.353 108.261 161.345 108.221 161.328C108.18 161.312 108.144 161.287 108.114 161.255C108.078 161.222 108.051 161.182 108.033 161.137C108.015 161.092 108.008 161.043 108.011 160.995L109.155 142.517C109.163 142.431 109.201 142.351 109.263 142.292C109.326 142.233 109.408 142.2 109.493 142.198C114.935 142.165 120.368 141.728 125.748 140.892C126.599 139.608 131.242 132.685 133.655 132.276C133.813 132.244 133.975 132.246 134.132 132.282C134.289 132.317 134.436 132.387 134.565 132.484C136.347 133.879 134.205 139.727 133.318 141.916C135.694 140.974 142.927 138.302 145.289 139.742C145.524 139.878 145.722 140.072 145.866 140.305C146.009 140.538 146.093 140.804 146.111 141.078C146.397 144.447 142.443 152.083 140.308 156.186C139.868 157.025 139.523 157.67 139.325 158.108C138.819 159.184 133.604 159.592 118.603 160.631C115.478 160.847 112.06 161.084 108.334 161.373L108.349 161.351ZM109.816 142.881L108.715 160.646L118.567 159.956C129.511 159.214 138.152 158.605 138.739 157.811C138.929 157.396 139.281 156.721 139.722 155.875C141.665 152.12 145.722 144.313 145.45 141.137C145.441 140.97 145.39 140.807 145.303 140.665C145.216 140.522 145.095 140.404 144.952 140.321C142.883 139.059 135.496 141.716 132.834 142.851C132.771 142.878 132.703 142.885 132.636 142.872C132.57 142.858 132.509 142.825 132.461 142.776C132.414 142.727 132.382 142.665 132.37 142.598C132.358 142.531 132.366 142.461 132.394 142.398C133.743 139.297 135.416 133.998 134.161 133.019C134.106 132.978 134.042 132.951 133.975 132.938C133.908 132.925 133.839 132.927 133.773 132.944C131.895 133.263 127.699 139.148 126.239 141.397C126.185 141.474 126.104 141.527 126.012 141.545C120.648 142.371 115.234 142.823 109.808 142.896L109.816 142.881Z" fill="#231F20"/>
<path d="M191.871 118.3H191.799C191.75 118.29 191.704 118.271 191.664 118.243C191.623 118.215 191.588 118.18 191.561 118.138C191.534 118.096 191.515 118.049 191.507 118C191.498 117.951 191.499 117.901 191.509 117.852L198.022 86.449C198.032 86.4001 198.051 86.3535 198.078 86.3122C198.106 86.2708 198.141 86.2354 198.182 86.208C198.223 86.1807 198.269 86.1619 198.318 86.1529C198.366 86.1439 198.416 86.1448 198.464 86.1555C198.56 86.1766 198.645 86.2354 198.699 86.3192C198.753 86.4029 198.773 86.5049 198.753 86.6031L192.24 118.006C192.222 118.091 192.175 118.167 192.107 118.22C192.04 118.274 191.956 118.302 191.871 118.3Z" fill="#231F20"/>
<path d="M150.36 30.9107C150.503 30.7193 150.657 30.5374 150.823 30.3664L152.57 28.7995C152.637 28.7024 152.726 28.623 152.829 28.5683C152.932 28.5135 153.046 28.4849 153.163 28.4849C153.279 28.4849 153.394 28.5135 153.497 28.5683C153.6 28.623 153.688 28.7024 153.755 28.7995L158.226 33.4339C158.289 33.5471 158.38 33.6413 158.491 33.7068C158.601 33.7723 158.726 33.8068 158.854 33.8068C158.982 33.8068 159.107 33.7723 159.218 33.7068C159.328 33.6413 159.42 33.5471 159.483 33.4339L169.948 22.8263C170.011 22.7113 170.102 22.6154 170.213 22.5487C170.324 22.482 170.451 22.4468 170.58 22.4468C170.709 22.4468 170.836 22.482 170.947 22.5487C171.058 22.6154 171.15 22.7113 171.212 22.8263L173.047 24.7094C173.141 24.7775 173.217 24.8674 173.27 24.9717C173.323 25.076 173.35 25.1916 173.35 25.309C173.35 25.4263 173.323 25.542 173.27 25.6463C173.217 25.7506 173.141 25.8405 173.047 25.9085L159.425 39.7602C159.357 39.8475 159.271 39.918 159.173 39.9665C159.075 40.0149 158.967 40.0401 158.858 40.0401C158.749 40.0401 158.641 40.0149 158.543 39.9665C158.445 39.918 158.358 39.8475 158.291 39.7602C155.734 37.0728 153.18 34.3755 150.628 31.6684C150.526 31.5398 150.437 31.4019 150.36 31.2565V30.9107Z" fill="#231F20"/>
<path d="M158.814 40.0398C158.653 40.0348 158.496 39.997 158.351 39.9289C158.206 39.8608 158.077 39.7637 157.971 39.6439L150.132 31.5778C150.04 31.4681 149.959 31.3503 149.888 31.2258L149.815 31.1085C149.776 31.0495 149.756 30.9808 149.755 30.9105V30.5439C149.754 30.4574 149.786 30.3736 149.844 30.3092L149.984 30.1406C150.095 29.9976 150.216 29.8628 150.346 29.7373C150.768 29.3486 151.204 28.96 151.632 28.5787L152.142 28.1314C152.249 28.0068 152.383 27.9076 152.534 27.8409C152.684 27.7743 152.848 27.7419 153.013 27.7461C153.178 27.7503 153.34 27.791 153.487 27.8653C153.634 27.9396 153.763 28.0455 153.863 28.1754L158.429 32.795C158.531 32.9151 158.668 32.9999 158.821 33.037C158.948 33.0136 159.066 32.9552 159.161 32.8684L169.859 22.2945C169.974 22.162 170.114 22.0536 170.271 21.9756C170.429 21.8975 170.6 21.8514 170.776 21.8398C171.126 21.8704 171.449 22.0363 171.677 22.3018L173.554 24.179C173.679 24.2836 173.781 24.4143 173.85 24.5619C173.919 24.7095 173.955 24.8704 173.955 25.0333C173.955 25.1962 173.919 25.357 173.85 25.5046C173.781 25.6522 173.679 25.7829 173.554 25.8875L159.649 39.6585C159.543 39.7749 159.414 39.8686 159.271 39.9342C159.127 39.9997 158.972 40.0357 158.814 40.0398ZM150.487 30.8372V30.8885C150.527 30.9609 150.574 31.0297 150.627 31.0938C153.238 33.7776 155.851 36.4663 158.466 39.1599C158.543 39.256 158.654 39.319 158.777 39.3359C158.899 39.3175 159.011 39.2579 159.094 39.1672L173.029 25.3596C173.273 25.1176 173.273 24.9416 173.029 24.685L171.152 22.8151C171.044 22.7052 170.913 22.6202 170.768 22.5658C170.618 22.6043 170.483 22.689 170.384 22.8078L159.708 33.3523C159.596 33.4815 159.459 33.5875 159.306 33.6643C159.152 33.741 158.985 33.787 158.814 33.7996C158.639 33.7871 158.468 33.7397 158.312 33.6603C158.156 33.581 158.017 33.4712 157.905 33.3377L153.339 28.718C153.065 28.4394 152.932 28.4394 152.6 28.718L152.098 29.1726C151.669 29.5539 151.24 29.9059 150.819 30.3166C150.713 30.4195 150.614 30.5298 150.524 30.6465L150.465 30.7199L150.487 30.8372Z" fill="#231F20"/>
<path d="M152.175 117.033L154.286 112.233L173.955 115.663V120.727L152.175 117.033Z" fill="#231F20"/>
<path d="M173.596 121.333H173.538L152.477 117.707C152.423 117.7 152.37 117.68 152.325 117.649C152.28 117.617 152.242 117.575 152.216 117.526C152.19 117.477 152.176 117.423 152.175 117.367C152.174 117.311 152.187 117.256 152.211 117.207L154.245 112.457C154.276 112.38 154.333 112.317 154.405 112.278C154.476 112.238 154.56 112.225 154.64 112.239L173.661 115.633C173.744 115.648 173.82 115.693 173.874 115.76C173.928 115.826 173.957 115.91 173.955 115.996V120.992C173.955 121.045 173.944 121.097 173.921 121.145C173.899 121.192 173.866 121.234 173.826 121.268C173.758 121.314 173.678 121.337 173.596 121.333ZM153.052 117.04L173.237 120.535V116.257L154.798 112.972L153.052 117.04Z" fill="#231F20"/>
<path d="M112.549 99.4933C112.255 99.4804 111.975 99.3703 111.752 99.1808C108.257 96.5207 102.233 73.0894 102.58 70.3785C102.963 67.3987 107.926 63.3505 108.139 63.1761C108.219 63.1136 108.32 63.0846 108.421 63.0955C108.522 63.1064 108.614 63.1563 108.678 63.2342C108.709 63.2719 108.733 63.3153 108.748 63.362C108.762 63.4088 108.767 63.4578 108.762 63.5065C108.757 63.5551 108.743 63.6023 108.72 63.6454C108.696 63.6885 108.664 63.7266 108.626 63.7575C108.574 63.8011 103.678 67.7912 103.339 70.473C103.007 73.0385 108.973 96.1137 112.187 98.5921C112.357 98.7156 112.49 98.7665 112.593 98.7302C115.542 97.5528 123.55 86.5566 123.653 86.4476C123.712 86.3672 123.801 86.313 123.901 86.2967C124 86.2804 124.102 86.3033 124.184 86.3604C124.225 86.3886 124.26 86.4247 124.287 86.4665C124.314 86.5082 124.332 86.5549 124.34 86.6036C124.349 86.6524 124.347 86.7023 124.335 86.7504C124.324 86.7985 124.302 86.8438 124.273 86.8836C123.941 87.3415 116.073 98.1705 112.895 99.4206C112.786 99.4688 112.668 99.4936 112.549 99.4933Z" fill="#231F20"/>
<path d="M146.588 95.2469H146.448C143.981 94.977 139.957 86.786 139.506 85.8597C139.463 85.7687 139.459 85.6647 139.493 85.5704C139.528 85.4761 139.599 85.3991 139.691 85.3564C139.781 85.3139 139.884 85.3084 139.979 85.3412C140.073 85.3741 140.15 85.4425 140.193 85.5315C141.825 88.9085 144.986 94.3279 146.529 94.4956C146.612 94.5067 146.696 94.4932 146.771 94.4568C146.846 94.4204 146.909 94.3629 146.95 94.2914C148.826 91.9209 151.381 78.6169 149.594 72.0669C149.567 71.9702 149.58 71.8668 149.629 71.7793C149.679 71.6918 149.762 71.6274 149.86 71.6001C149.908 71.587 149.959 71.5836 150.009 71.5901C150.059 71.5967 150.107 71.613 150.15 71.6381C150.194 71.6633 150.231 71.6968 150.261 71.7366C150.292 71.7764 150.313 71.8218 150.325 71.87C152.201 78.7408 149.55 92.2272 147.556 94.7582C147.445 94.9093 147.3 95.0324 147.132 95.1173C146.963 95.2022 146.777 95.2467 146.588 95.2469Z" fill="#231F20"/>
</g>
<rect y="150" width="256" height="32" fill="url(#paint0_linear_259_455)"/>
<defs>
<linearGradient id="paint0_linear_259_455" x1="128" y1="150" x2="128" y2="182" gradientUnits="userSpaceOnUse">
<stop stop-color="white" stop-opacity="0"/>
<stop offset="1" stop-color="white"/>
</linearGradient>
<clipPath id="clip0_259_455">
<rect width="242" height="182" fill="white" transform="translate(10)"/>
</clipPath>
</defs>
</svg>
